<svg xmlns="http://www.w3.org/2000/svg" viewBox="0 0 24 24">
  <style>
    svg { color: #d4a242; }
    @media (prefers-color-scheme: light) { svg { color: #b67a1f; } }
  </style>
  <g fill="currentColor">
    <circle cx="22.50" cy="12.00" r="0.9" opacity="0.85"/>
    <circle cx="22.14" cy="14.72" r="0.9" opacity="0.85"/>
    <circle cx="21.09" cy="17.25" r="0.9" opacity="0.85"/>
    <circle cx="19.42" cy="19.42" r="0.9" opacity="0.85"/>
    <circle cx="17.25" cy="21.09" r="0.9" opacity="0.85"/>
    <circle cx="14.72" cy="22.14" r="0.9" opacity="0.85"/>
    <circle cx="12.00" cy="22.50" r="0.9" opacity="0.85"/>
    <circle cx="9.28" cy="22.14" r="0.9" opacity="0.85"/>
    <circle cx="6.75" cy="21.09" r="0.9" opacity="0.85"/>
    <circle cx="4.58" cy="19.42" r="0.9" opacity="0.85"/>
    <circle cx="2.91" cy="17.25" r="0.9" opacity="0.85"/>
    <circle cx="1.86" cy="14.72" r="0.9" opacity="0.85"/>
    <circle cx="1.50" cy="12.00" r="0.9" opacity="0.85"/>
    <circle cx="1.86" cy="9.28" r="0.9" opacity="0.85"/>
    <circle cx="2.91" cy="6.75" r="0.9" opacity="0.85"/>
    <circle cx="4.58" cy="4.58" r="0.9" opacity="0.85"/>
    <circle cx="6.75" cy="2.91" r="0.9" opacity="0.85"/>
    <circle cx="9.28" cy="1.86" r="0.9" opacity="0.85"/>
    <circle cx="12.00" cy="1.50" r="0.9" opacity="0.85"/>
    <circle cx="14.72" cy="1.86" r="0.9" opacity="0.85"/>
    <circle cx="17.25" cy="2.91" r="0.9" opacity="0.85"/>
    <circle cx="19.42" cy="4.58" r="0.9" opacity="0.85"/>
    <circle cx="21.09" cy="6.75" r="0.9" opacity="0.85"/>
    <circle cx="22.14" cy="9.28" r="0.9" opacity="0.85"/>
  </g>
  <circle cx="12" cy="12" r="7.2" fill="none" stroke="currentColor" stroke-width="1.3"/>
  <path d="M14.6 9.2c-1.0 -1.0 -2.6 -1.0 -3.6 0c-1.0 1.0 -1.0 2.6 0 3.6l1.6 1.6c1.0 1.0 1.0 2.6 0 3.6c-1.0 1.0 -2.6 1.0 -3.6 0" fill="none" stroke="currentColor" stroke-width="1.5" stroke-linecap="round"/>
  <circle cx="12" cy="12" r="0.9" fill="currentColor"/>
</svg>
